<svg id="Layer_1" data-name="Layer 1" xmlns="http://www.w3.org/2000/svg" viewBox="0 0 467.45 430.17"><defs><style>.cls-1{fill:#a3240f;}</style></defs><title>sk_small</title><path class="cls-1" d="M116.55,467.32c-37.73,0-70.24-12.77-98.11-32.51l25.54-47c22.06,17.42,50.51,29,71.4,29,24.38,0,35.41-9.87,35.41-25.54C150.8,351.8,33,367.47,33,288.52c0-44.7,38.31-78.37,94.63-78.37,28.45,0,59.21,10.45,81.27,23.22l-20.32,48.18c-20.9-12.77-43-21.48-63.86-21.48-22.06,0-32.51,10.45-32.51,23.22,0,36.57,120.17,22.64,120.17,105.07C212.33,433.65,171.7,467.32,116.55,467.32Z" transform="translate(-18.44 -37.15)"/><path d="M406.94,462.68L310.57,345.41V462.68H245V37.15h65.6V321l91.72-106.23h79L371.53,331.48l114.36,131.2h-79Z" transform="translate(-18.44 -37.15)"/></svg>
