<svg xmlns="http://www.w3.org/2000/svg" viewBox="0 0 32 32" role="img" aria-labelledby="title">
  <title id="title">Streamplace tile icon</title>
  <path fill="#111113" d="M 0 16 C 0 4 4 0 16 0 C 28 0 32 4 32 16 C 32 28 28 32 16 32 C 4 32 0 28 0 16 Z"/>
  <path fill="none" stroke="rgba(255,255,255,0.10)" stroke-width="1" d="M 0 16 C 0 4 4 0 16 0 C 28 0 32 4 32 16 C 32 28 28 32 16 32 C 4 32 0 28 0 16 Z"/>
  <g transform="translate(4 4)">
    <path fill="#FFFFFF" fill-rule="evenodd" d="M 6.5 3 H 17.5 A 3.5 3.5 0 0 1 21 6.5 V 17.5 A 3.5 3.5 0 0 1 17.5 21 H 6.5 A 3.5 3.5 0 0 1 3 17.5 V 6.5 A 3.5 3.5 0 0 1 6.5 3 Z M 10.2 5.4 L 10.2 11.8 L 21 9.1 L 21 8.1 Z M 13.8 18.6 L 13.8 12.2 L 3 14.9 L 3 15.9 Z"/>
  </g>
</svg>
