<svg xmlns="http://www.w3.org/2000/svg" width="1496.535" height="256.562" viewBox="0 0 1496.535 256.562">
  <defs>
    <style>
      .cls-1 {
        fill: #333333;
        fill-rule: evenodd;
      }
    </style>
  </defs>
  <path id="streamplace_2.svg" class="cls-1" d="M205.217,409.6q-19.37,0-31.923,11.22a36.345,36.345,0,0,0-12.556,28.317q0,11.355,5.477,19.234,5.475,7.482,19.634,15.36,8.015,4.276,12.689,7.347a54.99,54.99,0,0,1,6.545,4.808,11.626,11.626,0,0,1,3.874,9.083,13.155,13.155,0,0,1-4.608,10.418q-4.608,4.008-12.222,4.007-13.493,0-25.378-14.291l-19.368,13.49q18.164,24.978,45.815,24.978,20.3,0,32.991-10.686,12.423-10.819,12.422-28.717,0-12.423-6.144-20.169-5.745-7.88-22.707-17.364-11.889-6.543-15.627-10.419a12.517,12.517,0,0,1-3.74-9.216,11.884,11.884,0,0,1,4.474-9.417,16.811,16.811,0,0,1,11.287-3.807q10.017,0,21.772,10.552l16.7-16.7q-18.032-18.031-39.4-18.032h0Zm134.237,31.523,3.339-27.382H315.545l7.213-58.37H293.239l-7.213,58.37h-16.7l-3.339,27.382h16.7l-12.155,98.44h29.519l12.155-98.44h27.248ZM364.3,413.737L348.8,539.559h29.519l7.747-62.777a119.075,119.075,0,0,1,3.272-17.9,42.906,42.906,0,0,1,5.209-12.222,19.931,19.931,0,0,1,7.413-6.946,21.277,21.277,0,0,1,9.885-2.2q8.145,0,16.3,6.946l18.833-24.31q-10.953-9.749-24.309-9.75-15.228,0-30.187,14.158l1.336-10.819H364.3ZM579.211,487.2q0.4-7.212.4-10.418,0-30.72-16.429-49.02Q547.021,409.6,518.971,409.6q-28.984,0-47.951,20.169-19.1,20.306-19.1,50.49,0,28.851,17.365,46.081T515.9,543.567q18.433,0,30.721-6.278,12.153-6.143,23.642-21.638L548.223,503.5q-11.088,15.5-31.789,15.494-15.1,0-24.844-8.949-9.618-8.947-9.617-22.841h97.238Zm-95.636-23.775q7.879-29.118,33.927-29.118,27.515,0,32.19,29.118H483.575Zm231.076-49.688-2,16.563q-10.017-10.82-19.635-15.227-9.485-4.408-22.974-4.408-28.584,0-46.883,19.9-18.031,19.9-18.031,51.023,0,26.982,15.761,43.945T661.624,542.5q20.3,0,39.269-16.563l-1.737,13.624h29.519l15.494-125.822H714.651Zm-18.3,91.094q-11.891,13.224-28.184,13.224-14.694,0-24.042-10.552t-9.35-27.115q0-18.964,11.22-32.056,11.22-12.956,27.782-12.957,15.228,0,24.844,10.552,9.618,10.419,9.617,27.115a46.53,46.53,0,0,1-11.887,31.789h0Zm89.09-91.094L769.948,539.559h29.519l8.682-70.124q4.139-34.059,28.718-34.06,16.961,0,16.963,15.628,0,3.741-1.2,13.891l-9.216,74.665H872.93l8.549-70.257a82.417,82.417,0,0,1,3.406-15.427,32.751,32.751,0,0,1,5.61-10.552,20.616,20.616,0,0,1,8.214-6.011,30.325,30.325,0,0,1,11.354-1.937q16.56,0,16.562,16.429a141.332,141.332,0,0,1-1.2,14.96l-9.083,72.795h29.519l8.549-69.322q1.067-9.216,1.669-15.494t0.6-9.751q0-34.326-37.4-34.327-21.639,0-40.338,19.9-5.077-11.487-11.487-15.628-6.411-4.407-18.3-4.408-19.635,0-34.6,14.96l1.336-11.754H785.442Zm217.588,0L978.717,611.553h29.523l11.08-90.025q10.83,11.889,20.44,16.429,9.21,4.539,23.64,4.541,28.185,0,47.15-20.169,19.1-20.3,19.1-49.955,0-26.714-16.7-44.211t-41.8-17.5q-21.105,0-40.21,16.295l1.61-13.223h-29.52Zm85.61,91.362q-11.475,12.822-28.31,12.822-16.035,0-26.18-10.418Q1024,497.354,1024,480.655q0-19.1,12.02-32.19a38.945,38.945,0,0,1,29.92-13.09q14.955,0,24.57,10.819,9.63,10.689,9.62,27.382,0,18.433-11.49,31.523h0ZM1183,355l-27.84,184.559h29.52L1212,355h-29Zm152.35,58.737-2.01,16.563q-10-10.82-19.63-15.227-9.48-4.408-22.97-4.408-28.59,0-46.89,19.9-18.03,19.9-18.03,51.023,0,26.982,15.76,43.945t40.74,16.963q20.295,0,39.27-16.563l-1.74,13.624h29.52l15.5-125.822h-29.52Zm-18.3,91.094q-11.9,13.224-28.18,13.224-14.7,0-24.05-10.552t-9.35-27.115q0-18.964,11.22-32.056,11.22-12.956,27.79-12.957,15.225,0,24.84,10.552,9.615,10.419,9.62,27.115a46.552,46.552,0,0,1-11.89,31.789h0ZM1455.69,409.6q-27.78,0-46.48,19.9-18.57,19.77-18.56,49.287,0,28.72,17.23,46.75,17.355,18.032,45.01,18.032,15.495,0,32.59-6.946l3.87-31.122q-16.695,13.493-32.32,13.491-16.3,0-26.58-11.086-10.155-10.952-10.15-29.252,0-19.5,10.82-31.923t27.65-12.422a36.358,36.358,0,0,1,19.23,4.942q8.28,5.077,17.36,16.7l3.74-30.053q-20.7-16.295-43.41-16.3h0Zm187.8,77.6q0.4-7.212.4-10.418,0-30.72-16.43-49.02-16.155-18.163-44.21-18.166-28.98,0-47.95,20.169-19.1,20.306-19.1,50.49,0,28.851,17.36,46.081t46.62,17.231q18.435,0,30.72-6.278,12.15-6.143,23.64-21.638L1612.5,503.5q-11.085,15.5-31.79,15.494-15.09,0-24.84-8.949-9.615-8.947-9.62-22.841h97.24Zm-95.63-23.775q7.875-29.118,33.92-29.118,27.525,0,32.19,29.118h-66.11Z" transform="translate(-147.375 -355)"/>
</svg>
