<svg xmlns="http://www.w3.org/2000/svg" width="512" height="512" viewBox="0 0 512 512"><defs><style>.cls-1{fill:#333}.cls-2{fill:#ffcf00;fill-rule:evenodd}</style></defs><rect id="Rounded_Rectangle_1" data-name="Rounded Rectangle 1" class="cls-1" width="512" height="512" rx="57" ry="57"/><path id="Color_Fill_3" data-name="Color Fill 3" class="cls-2" d="M275.84 39.233q-62.5 0-103.009 36.179t-40.514 91.309q0 36.613 17.671 62.021 17.667 24.126 63.357 49.531 25.86 13.789 40.945 23.689t21.119 15.5q12.5 11.205 12.5 29.288 0 20.673-14.869 33.6t-39.44 12.921q-43.537 0-81.89-46.086l-62.5 43.5q58.61 80.546 147.833 80.542 65.51 0 106.457-34.456 40.083-34.887 40.083-92.6 0-40.056-19.826-65.037-18.536-25.407-73.27-55.991-38.366-21.1-50.427-33.595Q228 177.5 228 159.83q0-18.09 14.439-30.365t36.419-12.275q32.325 0 70.253 34.026l53.875-53.838Q344.8 39.233 275.84 39.233zm2038.2 83.126q54.735 0 54.74 50.392 0 12.063-3.88 44.793l-29.74 240.763h95.25l27.59-226.55q3.87-28.85 10.99-49.746t18.1-34.025a66.571 66.571 0 0 1 26.5-19.382q15.525-6.239 36.64-6.245 53.43 0 53.44 52.976 0 15.505-3.88 48.239l-29.3 234.733h95.25l27.58-223.535q3.45-29.718 5.39-49.961t1.94-31.442q0-110.687-120.68-110.69-69.825 0-130.16 64.174-16.395-37.036-37.07-50.392-20.685-14.213-59.05-14.213m496.52 10.337l-78.45 637.87h95.25l35.78-290.293q34.9 38.339 65.94 52.976 29.745 14.637 76.29 14.644 90.93 0 152.14-65.036 61.635-65.463 61.63-161.083 0-86.136-53.87-142.562t-134.9-56.422q-68.115 0-129.74 52.546l5.18-42.64h-95.25zm276.27 294.6q-37.08 41.348-91.37 41.348-51.735 0-84.48-33.6-32.76-32.727-32.76-86.571 0-61.587 38.79-103.8t96.55-42.209q48.255 0 79.3 34.887 31.035 34.463 31.03 88.294 0 59.436-37.06 101.645zm304.28-616.335l-89.64 727.457h95.25l89.21-727.457h-94.82zm491.78 321.735l-6.47 53.407q-32.325-34.887-63.36-49.1-30.6-14.213-74.13-14.213-92.235 0-151.28 64.174-58.185 64.182-58.19 164.529 0 87 50.86 141.7t131.46 54.7q65.505 0 126.71-53.407l-5.6 43.932h95.25l50-405.722h-95.25zm-59.05 293.739q-38.37 42.639-90.94 42.64-47.415 0-77.58-34.026t-30.17-87.432q0-61.153 36.2-103.369 36.21-41.772 89.65-41.778 49.125 0 80.16 34.025 31.035 33.6 31.04 87.433 0 59.013-38.36 102.507zm447.38-307.091q-89.655 0-149.99 64.175-59.91 63.747-59.91 158.929 0 92.609 55.6 150.746 56.025 58.144 145.25 58.145 49.98 0 105.16-22.4l12.5-100.353q-53.88 43.507-104.3 43.5-52.59 0-85.77-35.749-32.76-35.31-32.76-94.324 0-62.879 34.91-102.938t89.22-40.055q35.775 0 62.06 15.936 26.73 16.374 56.03 53.838l12.07-96.908q-66.81-52.542-140.07-52.546zm605.98 250.238q1.305-23.257 1.3-33.594 0-99.059-53.02-158.068-52.155-58.569-142.66-58.576-93.525 0-154.73 65.036-61.635 65.474-61.63 162.806 0 93.032 56.03 148.592t150.42 55.561q59.475 0 99.13-20.243 39.21-19.806 76.29-69.774l-71.12-39.194q-35.775 49.968-102.58 49.962-48.7 0-80.16-28.858-31.035-28.85-31.04-73.65h313.77zm-308.59-76.665q25.425-93.89 109.47-93.893 88.785 0 103.87 93.893h-213.34z"/></svg>
